<?xml version="1.0" standalone="no"?>
<svg xmlns="http://www.w3.org/2000/svg" viewBox="0 0 287 71" width="287" height="71"><g fill="#217815" color="#217815" transform="translate(125.708 0) scale(0.546875) "><svg width="64.0" height="64.0" x="0.0" y="0.0" viewBox="0 0 64 64"><g><path d="M61.662,33.25a1.006,1.006,0,0,0-.786-.242l-.25.031A13.223,13.223,0,0,1,49,28.605V13c0-.021-.011-.04-.012-.061a1,1,0,0,0-.052-.26c-.011-.032-.019-.062-.033-.093a1,1,0,0,0-.2-.293l-10-10a1,1,0,0,0-.291-.2.9.9,0,0,0-.1-.035,1.019,1.019,0,0,0-.249-.05C38.044,2.012,38.023,2,38,2H3A1,1,0,0,0,2,3V61a1,1,0,0,0,1,1H48a.994.994,0,0,0,.569-.178L55.538,57A15,15,0,0,0,62,44.665V34A1,1,0,0,0,61.662,33.25ZM45.586,12H39V5.414ZM4,4H37v9a1,1,0,0,0,1,1h9V28.605a13.219,13.219,0,0,1-11.626,4.434l-.25-.031a1.038,1.038,0,0,0-.124.011V33H25v2h9v2H18v2H34v5H22v2H34.082a14.805,14.805,0,0,0,.308,2H8v2H34.982a14.914,14.914,0,0,0,.957,2H28v2h9.292a14.964,14.964,0,0,0,3.17,3L44.8,60H4ZM60,44.665a13,13,0,0,1-5.6,10.688L48,59.784l-6.4-4.431A13,13,0,0,1,36,44.665V35.108A15.2,15.2,0,0,0,48,30.5a15.229,15.229,0,0,0,12,4.612Z"></path><path d="M57.107,37.042A17.257,17.257,0,0,1,48.6,33.686a1,1,0,0,0-1.2,0,17.257,17.257,0,0,1-8.506,3.356,1,1,0,0,0-.893.994v6.629a11,11,0,0,0,4.739,9.044l4.692,3.248a1,1,0,0,0,1.138,0l4.693-3.249A11,11,0,0,0,58,44.665V38.036A1,1,0,0,0,57.107,37.042ZM56,44.665a9,9,0,0,1-3.877,7.4L48,54.918l-4.122-2.854A9,9,0,0,1,40,44.665V38.913a19.257,19.257,0,0,0,8-3.195,19.257,19.257,0,0,0,8,3.195Z"></path><path d="M43.6,46.2l-1.2,1.6,4,3a1,1,0,0,0,1.389-.186l7-9-1.578-1.228-6.4,8.224Z"></path><rect x="17" y="7" width="16" height="2"></rect><rect x="17" y="11" width="16" height="2"></rect><rect x="8" y="17" width="15" height="2"></rect><rect x="8" y="21" width="20" height="2"></rect><rect x="8" y="25" width="19" height="2"></rect><rect x="25" y="17" width="18" height="2"></rect><rect x="30" y="21" width="13" height="2"></rect><polygon points="30 25 29 25 29 27 30 27 38 27 43 27 43 25 38 25 30 25"></polygon><rect x="8" y="29" width="35" height="2"></rect><rect x="8" y="33" width="15" height="2"></rect><rect x="8" y="44" width="12" height="2"></rect><rect x="8" y="37" width="8" height="2"></rect><rect x="8" y="52" width="18" height="2"></rect></g></svg></g><line x1="126.758" y1="41" x2="159.658" y2="41" stroke="#ec0c0c" stroke-linecap="round"></line><path fill="#ec0c0c" fill-rule="nonzero" d="M8.38 17.76L8.38 17.76Q9.55 17.76 9.88 17.33Q10.20 16.90 10.20 15.86L10.20 15.86L10.20 11.21L8.66 11.21L8.66 10.68L15.58 10.68L15.58 11.21L14.64 11.21L14.64 17.98L14.28 17.98Q13.85 17.38 13.06 17.38L13.06 17.38Q12.72 17.38 11.05 17.81Q9.38 18.24 8.21 18.24L8.21 18.24Q4.30 18.24 2.15 16.13Q0 14.02 0 9.78Q0 5.54 2.24 3.24Q4.49 0.94 8.28 0.94L8.28 0.94Q9.74 0.94 11.22 1.31Q12.70 1.68 12.94 1.68Q13.18 1.68 13.30 1.57Q13.42 1.46 13.56 1.20L13.56 1.20L13.82 1.20L14.02 6.41L13.58 6.41Q12.41 4.08 11.22 2.75Q10.03 1.42 8.57 1.42L8.57 1.42Q4.90 1.42 4.90 8.59L4.90 8.59L4.90 10.49Q4.90 14.09 5.80 15.92Q6.70 17.76 8.38 17.76ZM22.92 18.24Q19.82 18.24 18.28 16.64Q16.73 15.05 16.73 12.20Q16.73 9.36 18.47 7.85Q20.21 6.34 22.90 6.34L22.90 6.34Q28.34 6.34 28.13 11.81L28.13 11.81L21.36 11.81L21.36 12.74Q21.36 15.10 21.96 16.30Q22.56 17.50 24.05 17.50L24.05 17.50Q26.83 17.50 27.70 14.52L27.70 14.52L28.13 14.59Q27.67 16.32 26.48 17.28Q25.30 18.24 22.92 18.24L22.92 18.24ZM21.38 10.15L21.38 11.33L23.86 11.33L23.86 10.15Q23.86 8.21 23.63 7.50Q23.40 6.79 22.72 6.79Q22.03 6.79 21.71 7.55Q21.38 8.30 21.38 10.15L21.38 10.15ZM29.04 7.01L29.04 6.58L34.82 6.58L34.82 8.78Q35.21 7.68 36 7.01Q36.79 6.34 38.40 6.34L38.40 6.34Q42.12 6.34 42.12 10.34L42.12 10.34L42.12 17.57L43.46 17.57L43.46 18L36.67 18L36.67 17.57L37.66 17.57L37.66 9.77Q37.66 8.33 37.46 7.91Q37.27 7.49 36.77 7.49L36.77 7.49Q36 7.49 35.41 8.50Q34.82 9.50 34.82 10.94L34.82 10.94L34.82 17.57L35.86 17.57L35.86 18L29.04 18L29.04 17.57L30.36 17.57L30.36 7.01L29.04 7.01ZM50.09 18.24Q46.99 18.24 45.44 16.64Q43.90 15.05 43.90 12.20Q43.90 9.36 45.64 7.85Q47.38 6.34 50.06 6.34L50.06 6.34Q55.51 6.34 55.30 11.81L55.30 11.81L48.53 11.81L48.53 12.74Q48.53 15.10 49.13 16.30Q49.73 17.50 51.22 17.50L51.22 17.50Q54 17.50 54.86 14.52L54.86 14.52L55.30 14.59Q54.84 16.32 53.65 17.28Q52.46 18.24 50.09 18.24L50.09 18.24ZM48.55 10.15L48.55 11.33L51.02 11.33L51.02 10.15Q51.02 8.21 50.80 7.50Q50.57 6.79 49.88 6.79Q49.20 6.79 48.88 7.55Q48.55 8.30 48.55 10.15L48.55 10.15ZM64.18 7.25L64.18 7.25Q63.29 7.25 62.62 8.40Q61.94 9.55 61.94 11.14L61.94 11.14L61.94 17.57L63.65 17.57L63.65 18L56.16 18L56.16 17.57L57.48 17.57L57.48 7.01L56.16 7.01L56.16 6.58L61.94 6.58L61.94 8.88Q62.26 7.66 63.14 7.00Q64.03 6.34 65.16 6.34Q66.29 6.34 67.00 6.97Q67.70 7.61 67.70 8.77Q67.70 9.94 67.18 10.56Q66.65 11.18 65.56 11.18Q64.46 11.18 63.95 10.46Q63.43 9.74 63.82 8.47L63.82 8.47L64.68 8.47Q65.28 7.25 64.18 7.25ZM73.44 12.36L73.44 12.36L74.14 12.36L74.14 10.51Q74.14 8.23 73.88 7.45Q73.63 6.67 72.91 6.67L72.91 6.67Q72.48 6.67 72.13 6.90Q71.78 7.13 71.78 7.52Q71.78 7.92 71.93 8.33L71.93 8.33L72.53 8.33Q72.72 8.83 72.72 9.54Q72.72 10.25 72.12 10.76Q71.52 11.28 70.61 11.28L70.61 11.28Q68.54 11.28 68.54 9.29L68.54 9.29Q68.54 6.34 73.56 6.34L73.56 6.34Q76.42 6.34 77.51 7.31Q78.60 8.28 78.60 10.87L78.60 10.87L78.60 15.74Q78.60 16.99 79.30 16.99L79.30 16.99Q80.11 16.99 80.26 14.52L80.26 14.52L80.62 14.54Q80.52 16.66 79.82 17.45Q79.13 18.24 77.54 18.24L77.54 18.24Q74.66 18.24 74.23 16.46L74.23 16.46Q73.92 17.38 73.30 17.81Q72.67 18.24 71.47 18.24L71.47 18.24Q67.92 18.24 67.92 15.34L67.92 15.34Q67.92 13.63 69.28 13.00Q70.63 12.36 73.44 12.36ZM72.48 15.31Q72.48 16.56 72.61 16.92Q72.74 17.28 73.12 17.28Q73.49 17.28 73.81 16.67Q74.14 16.06 74.14 14.98L74.14 14.98L74.14 12.74L73.97 12.74Q72.48 12.74 72.48 14.93L72.48 14.93L72.48 15.31ZM85.73 13.03Q85.73 15.55 85.99 16.38Q86.26 17.21 86.96 17.21Q87.67 17.21 88.19 16.58Q88.70 15.96 88.70 14.74L88.70 14.74L88.70 9.50Q88.70 8.47 88.30 7.75Q87.89 7.03 87.10 7.03Q86.30 7.03 86.02 8.09Q85.73 9.14 85.73 11.78L85.73 11.78L85.73 13.03ZM94.34 18L89.02 18L88.75 16.32Q87.94 18.24 85.44 18.24L85.44 18.24Q83.38 18.24 82.24 16.75Q81.10 15.26 81.10 12.31L81.10 12.31Q81.10 6.34 85.85 6.34L85.85 6.34Q87.96 6.34 88.63 7.51L88.63 7.51L88.63 0.43L87.17 0.43L87.17 0L93.17 0L93.17 17.57L94.34 17.57L94.34 18ZM102.72 13.27L102.72 13.27L102.72 11.23Q102.72 8.90 102.47 7.84Q102.22 6.77 101.30 6.77L101.30 6.77Q100.78 6.77 100.45 7.07Q100.13 7.37 99.98 8.06L99.98 8.06Q99.77 9.14 99.77 11.35L99.77 11.35L99.77 13.22Q99.77 15.84 99.92 16.37Q100.08 16.90 100.25 17.23L100.25 17.23Q100.51 17.81 101.28 17.81L101.28 17.81Q102.22 17.81 102.50 16.73L102.50 16.73Q102.72 15.96 102.72 13.27ZM101.23 18.24Q98.23 18.24 96.70 16.70Q95.16 15.17 95.16 12.30Q95.16 9.43 96.80 7.88Q98.45 6.34 101.42 6.34Q104.40 6.34 105.86 7.76Q107.33 9.19 107.33 12.12L107.33 12.12Q107.33 18.24 101.23 18.24L101.23 18.24ZM116.02 7.25L116.02 7.25Q115.13 7.25 114.46 8.40Q113.78 9.55 113.78 11.14L113.78 11.14L113.78 17.57L115.49 17.57L115.49 18L108.00 18L108.00 17.57L109.32 17.57L109.32 7.01L108.00 7.01L108.00 6.58L113.78 6.58L113.78 8.88Q114.10 7.66 114.98 7.00Q115.87 6.34 117.00 6.34Q118.13 6.34 118.84 6.97Q119.54 7.61 119.54 8.77Q119.54 9.94 119.02 10.56Q118.49 11.18 117.40 11.18Q116.30 11.18 115.79 10.46Q115.27 9.74 115.66 8.47L115.66 8.47L116.52 8.47Q117.12 7.25 116.02 7.25ZM129.07 13.03Q129.07 15.55 129.34 16.38Q129.60 17.21 130.31 17.21Q131.02 17.21 131.53 16.58Q132.05 15.96 132.05 14.74L132.05 14.74L132.05 9.50Q132.05 8.47 131.64 7.75Q131.23 7.03 130.44 7.03Q129.65 7.03 129.36 8.09Q129.07 9.14 129.07 11.78L129.07 11.78L129.07 13.03ZM137.69 18L132.36 18L132.10 16.32Q131.28 18.24 128.78 18.24L128.78 18.24Q126.72 18.24 125.58 16.75Q124.44 15.26 124.44 12.31L124.44 12.31Q124.44 6.34 129.19 6.34L129.19 6.34Q131.30 6.34 131.98 7.51L131.98 7.51L131.98 0.43L130.51 0.43L130.51 0L136.51 0L136.51 17.57L137.69 17.57L137.69 18ZM144.62 18.24Q141.53 18.24 139.98 16.64Q138.43 15.05 138.43 12.20Q138.43 9.36 140.17 7.85Q141.91 6.34 144.60 6.34L144.60 6.34Q150.05 6.34 149.83 11.81L149.83 11.81L143.06 11.81L143.06 12.74Q143.06 15.10 143.66 16.30Q144.26 17.50 145.75 17.50L145.75 17.50Q148.54 17.50 149.40 14.52L149.40 14.52L149.83 14.59Q149.38 16.32 148.19 17.28Q147.00 18.24 144.62 18.24L144.62 18.24ZM143.09 10.15L143.09 11.33L145.56 11.33L145.56 10.15Q145.56 8.21 145.33 7.50Q145.10 6.79 144.42 6.79Q143.74 6.79 143.41 7.55Q143.09 8.30 143.09 10.15L143.09 10.15ZM164.38 1.42L164.38 1.42Q160.66 1.42 160.66 8.59L160.66 8.59L160.66 10.49Q160.66 13.90 161.64 15.83Q162.62 17.76 164.54 17.76L164.54 17.76Q167.18 17.76 169.39 12.62L169.39 12.62L169.82 12.62L169.66 17.98L169.39 17.98Q169.25 17.71 169.13 17.60Q169.01 17.50 168.78 17.50Q168.55 17.50 167.04 17.87Q165.53 18.24 163.97 18.24L163.97 18.24Q160.06 18.24 157.91 16.13Q155.76 14.02 155.76 9.78Q155.76 5.54 158.00 3.24Q160.25 0.94 164.04 0.94L164.04 0.94Q165.50 0.94 166.91 1.31Q168.31 1.68 168.55 1.68Q168.79 1.68 168.91 1.57Q169.03 1.46 169.18 1.20L169.18 1.20L169.44 1.20L169.63 6.41L169.20 6.41Q168.12 3.98 166.98 2.70Q165.84 1.42 164.38 1.42ZM177.24 12.89Q177.24 15.10 178.00 16.27Q178.75 17.45 180.72 17.45Q182.69 17.45 183.74 16.22Q184.80 15 184.80 12.50L184.80 12.50L184.80 1.66L183.24 1.66L183.24 1.20L186.74 1.20L186.74 1.66L185.42 1.66L185.42 12.34Q185.42 15.31 184.10 16.78Q182.78 18.24 179.44 18.24Q176.09 18.24 174.32 16.85Q172.56 15.46 172.56 12.07L172.56 12.07L172.56 1.66L171.24 1.66L171.24 1.20L178.80 1.20L178.80 1.66L177.24 1.66L177.24 12.89ZM195.00 9.50L195.00 9.50L193.73 9.50L193.73 17.54L195.29 17.54L195.29 18L187.49 18L187.49 17.54L189.05 17.54L189.05 1.66L187.49 1.66L187.49 1.20L194.74 1.20Q197.86 1.20 199.16 1.52Q200.47 1.85 201.00 2.30L201.00 2.30Q202.15 3.24 202.15 5.28Q202.15 7.32 201.14 8.20Q200.14 9.07 198.07 9.24L198.07 9.24L198.07 9.31Q200.02 9.58 200.78 10.46Q201.55 11.35 201.55 13.44L201.55 13.44L201.55 14.71Q201.55 15.96 201.68 16.39Q201.82 16.82 202.25 16.82Q202.68 16.82 202.93 16.43Q203.18 16.03 203.40 14.76L203.40 14.76L203.81 14.81Q203.54 16.85 202.88 17.54Q202.22 18.24 200.26 18.24Q198.29 18.24 197.46 17.32Q196.63 16.39 196.63 13.85L196.63 13.85L196.63 12.10Q196.63 10.75 196.28 10.13Q195.94 9.50 195.00 9.50ZM194.52 1.66L193.73 1.66L193.73 9.05L194.50 9.05Q195.86 9.05 196.52 8.21Q197.18 7.37 197.18 5.47L197.18 5.47L197.18 4.78Q197.18 2.88 196.55 2.27Q195.91 1.66 194.52 1.66L194.52 1.66ZM204.67 1.66L204.67 1.20L211.73 1.20Q215.35 1.20 217.13 2.24Q218.90 3.29 218.90 5.98L218.90 5.98Q218.90 8.95 216.74 10.08L216.74 10.08Q214.73 11.11 211.10 11.11L211.10 11.11L210.91 11.11L210.91 17.54L213.91 17.54L213.91 18L204.67 18L204.67 17.54L206.23 17.54L206.23 1.66L204.67 1.66ZM211.56 1.66L210.91 1.66L210.91 10.66L211.42 10.66Q212.86 10.66 213.41 9.67Q213.96 8.69 213.96 6.48L213.96 6.48L213.96 5.33Q213.96 3.29 213.44 2.47Q212.93 1.66 211.56 1.66L211.56 1.66ZM224.95 7.01L223.97 7.01L223.97 6.58L230.93 6.58L230.93 7.01L229.63 7.01L232.25 14.98L235.03 7.01L233.42 7.01L233.42 6.58L236.81 6.58L236.81 7.01L235.61 7.01L231.12 19.94Q230.33 22.20 229.34 23.10Q228.36 24 226.94 24Q225.53 24 224.71 23.35Q223.90 22.70 223.90 21.70Q223.90 20.69 224.42 20.16Q224.95 19.63 225.82 19.63L225.82 19.63Q227.81 19.63 227.81 21.29L227.81 21.29Q227.81 21.65 227.66 22.15L227.66 22.15L226.82 22.15Q226.63 22.70 226.78 23.06Q226.92 23.42 227.42 23.42L227.42 23.42Q228.41 23.42 229.18 22.45Q229.94 21.48 230.64 19.49L230.64 19.49L231.17 18L229.06 18L224.95 7.01ZM248.81 9.50L248.81 9.50L247.54 9.50L247.54 17.54L249.10 17.54L249.10 18L241.30 18L241.30 17.54L242.86 17.54L242.86 1.66L241.30 1.66L241.30 1.20L248.54 1.20Q251.66 1.20 252.97 1.52Q254.28 1.85 254.81 2.30L254.81 2.30Q255.96 3.24 255.96 5.28Q255.96 7.32 254.95 8.20Q253.94 9.07 251.88 9.24L251.88 9.24L251.88 9.31Q253.82 9.58 254.59 10.46Q255.36 11.35 255.36 13.44L255.36 13.44L255.36 14.71Q255.36 15.96 255.49 16.39Q255.62 16.82 256.06 16.82Q256.49 16.82 256.74 16.43Q256.99 16.03 257.21 14.76L257.21 14.76L257.62 14.81Q257.35 16.85 256.69 17.54Q256.03 18.24 254.06 18.24Q252.10 18.24 251.27 17.32Q250.44 16.39 250.44 13.85L250.44 13.85L250.44 12.10Q250.44 10.75 250.09 10.13Q249.74 9.50 248.81 9.50ZM248.33 1.66L247.54 1.66L247.54 9.05L248.30 9.05Q249.67 9.05 250.33 8.21Q250.99 7.37 250.99 5.47L250.99 5.47L250.99 4.78Q250.99 2.88 250.36 2.27Q249.72 1.66 248.33 1.66L248.33 1.66ZM258.62 1.73L258.62 1.20L271.10 1.20L271.34 6.19L270.91 6.19Q270.02 3.60 268.86 2.66Q267.70 1.73 265.39 1.73L265.39 1.73L264.72 1.73L264.72 9.53L265.80 9.53Q266.95 9.53 267.72 8.69Q268.49 7.85 268.78 6.38L268.78 6.38L269.14 6.38L269.14 13.49L268.73 13.49Q268.34 11.69 267.66 10.92Q266.98 10.15 265.80 10.15L265.80 10.15L264.72 10.15L264.72 17.47L267.70 17.47L267.70 18L258.62 18L258.62 17.47L260.04 17.47L260.04 1.73L258.62 1.73ZM280.97 1.42L280.97 1.42Q277.25 1.42 277.25 8.59L277.25 8.59L277.25 10.49Q277.25 13.90 278.23 15.83Q279.22 17.76 281.14 17.76L281.14 17.76Q283.78 17.76 285.98 12.62L285.98 12.62L286.42 12.62L286.25 17.98L285.98 17.98Q285.84 17.71 285.72 17.60Q285.60 17.50 285.37 17.50Q285.14 17.50 283.63 17.87Q282.12 18.24 280.56 18.24L280.56 18.24Q276.65 18.24 274.50 16.13Q272.35 14.02 272.35 9.78Q272.35 5.54 274.60 3.24Q276.84 0.94 280.63 0.94L280.63 0.94Q282.10 0.94 283.50 1.31Q284.90 1.68 285.14 1.68Q285.38 1.68 285.50 1.57Q285.62 1.46 285.77 1.20L285.77 1.20L286.03 1.20L286.22 6.41L285.79 6.41Q284.71 3.98 283.57 2.70Q282.43 1.42 280.97 1.42Z" transform="translate(0, 47)"></path></svg>